<svg width="56" height="22" viewBox="0 0 56 22" fill="none" xmlns="http://www.w3.org/2000/svg">
<path d="M2.52084 2.97925L4.42751 3.30925L5.31026 13.8262C5.34417 14.24 5.53287 14.6259 5.8387 14.9067C6.14454 15.1876 6.54503 15.3428 6.96026 15.3414H16.9611C17.3587 15.3419 17.7431 15.1987 18.0435 14.9383C18.344 14.678 18.5403 14.3179 18.5964 13.9242L19.4673 7.91275C19.4905 7.75287 19.4819 7.58999 19.4422 7.43341C19.4024 7.27684 19.3321 7.12964 19.2354 7.00023C19.1387 6.87083 19.0174 6.76175 18.8785 6.67925C18.7396 6.59675 18.5858 6.54244 18.4259 6.51941C18.3673 6.513 4.73368 6.50841 4.73368 6.50841" stroke="#272343" stroke-width="1.5" stroke-linecap="round" stroke-linejoin="round"/>
<path d="M12.9479 9.89551H15.4899" stroke="#272343" stroke-width="1.5" stroke-linecap="round" stroke-linejoin="round"/>
<path fill-rule="evenodd" clip-rule="evenodd" d="M6.55786 18.5195C6.62508 18.5166 6.69219 18.5274 6.75515 18.5511C6.81811 18.5748 6.87562 18.6111 6.9242 18.6576C6.97279 18.7042 7.01145 18.7601 7.03787 18.822C7.06428 18.8838 7.0779 18.9504 7.0779 19.0177C7.0779 19.085 7.06428 19.1516 7.03787 19.2135C7.01145 19.2754 6.97279 19.3313 6.9242 19.3778C6.87562 19.4243 6.81811 19.4606 6.75515 19.4843C6.69219 19.5081 6.62508 19.5188 6.55786 19.5159C6.42942 19.5104 6.30808 19.4555 6.21914 19.3627C6.13021 19.2699 6.08057 19.1463 6.08057 19.0177C6.08057 18.8892 6.13021 18.7656 6.21914 18.6727C6.30808 18.5799 6.42942 18.525 6.55786 18.5195Z" fill="#272343" stroke="#272343" stroke-width="1.5" stroke-linecap="round" stroke-linejoin="round"/>
<path fill-rule="evenodd" clip-rule="evenodd" d="M16.8988 18.5195C17.0312 18.5195 17.1583 18.5722 17.252 18.6659C17.3457 18.7595 17.3983 18.8866 17.3983 19.0191C17.3983 19.1516 17.3457 19.2787 17.252 19.3724C17.1583 19.4661 17.0312 19.5187 16.8988 19.5187C16.7663 19.5187 16.6392 19.4661 16.5455 19.3724C16.4518 19.2787 16.3992 19.1516 16.3992 19.0191C16.3992 18.8866 16.4518 18.7595 16.5455 18.6659C16.6392 18.5722 16.7663 18.5195 16.8988 18.5195Z" fill="#272343" stroke="#272343" stroke-width="1.5" stroke-linecap="round" stroke-linejoin="round"/>
<path d="M38.6507 9.6108C38.3525 7.74432 36.8908 6.65341 35.0456 6.65341C32.7871 6.65341 31.1209 8.34517 31.1209 11.1364C31.1209 13.9276 32.7786 15.6193 35.0456 15.6193C36.9632 15.6193 38.3652 14.4176 38.6507 12.6918L37.3212 12.6875C37.0953 13.804 36.1578 14.4176 35.0542 14.4176C33.5584 14.4176 32.4292 13.2713 32.4292 11.1364C32.4292 9.01847 33.5542 7.85511 35.0584 7.85511C36.1706 7.85511 37.1039 8.48153 37.3212 9.6108H38.6507ZM42.0289 15.6449C43.1113 15.6449 43.7207 15.0952 43.9636 14.6051H44.0147V15.5H45.2591V11.1534C45.2591 9.24858 43.7591 8.86932 42.7193 8.86932C41.5346 8.86932 40.4437 9.34659 40.0176 10.5398L41.215 10.8125C41.4025 10.348 41.8798 9.90057 42.7363 9.90057C43.5588 9.90057 43.9806 10.331 43.9806 11.0724V11.1023C43.9806 11.5668 43.5034 11.5582 42.3272 11.6946C41.0872 11.8395 39.8173 12.1634 39.8173 13.6506C39.8173 14.9375 40.7846 15.6449 42.0289 15.6449ZM42.3059 14.6222C41.5858 14.6222 41.0659 14.2983 41.0659 13.6676C41.0659 12.9858 41.671 12.7429 42.4082 12.6449C42.8216 12.5895 43.8017 12.4787 43.9849 12.2955V13.1392C43.9849 13.9148 43.367 14.6222 42.3059 14.6222ZM46.9561 15.5H48.2303V11.5028C48.2303 10.6463 48.8908 10.0284 49.7942 10.0284C50.0584 10.0284 50.3567 10.0753 50.459 10.1051V8.88636C50.3311 8.86932 50.0797 8.85653 49.9178 8.85653C49.1507 8.85653 48.4945 9.29119 48.2559 9.99432H48.1877V8.95455H46.9561V15.5ZM55.0037 8.95455H53.6614V7.38636H52.3873V8.95455H51.4284V9.97727H52.3873V13.8423C52.383 15.0312 53.2907 15.6065 54.2963 15.5852C54.7012 15.581 54.9739 15.5043 55.123 15.4489L54.8929 14.3963C54.8077 14.4134 54.65 14.4517 54.4455 14.4517C54.0321 14.4517 53.6614 14.3153 53.6614 13.5781V9.97727H55.0037V8.95455Z" fill="#272343"/>
</svg>
